<svg xmlns="http://www.w3.org/2000/svg" viewBox="0 0 480 480" fill="none" shape-rendering="auto"><metadata xmlns:rdf="http://www.w3.org/1999/02/22-rdf-syntax-ns#" xmlns:xsi="http://www.w3.org/2001/XMLSchema-instance" xmlns:dc="http://purl.org/dc/elements/1.1/" xmlns:dcterms="http://purl.org/dc/terms/"><rdf:RDF><rdf:Description><dc:title>Custom Avatar</dc:title><dc:creator>Ashley Seo</dc:creator><dc:source xsi:type="dcterms:URI">https://www.figma.com/community/file/881358461963645496</dc:source><dcterms:license xsi:type="dcterms:URI">https://creativecommons.org/licenses/by/4.0/</dcterms:license><dc:rights>Remix of „Custom Avatar” (https://www.figma.com/community/file/881358461963645496) by „Ashley Seo”, licensed under „CC BY 4.0” (https://creativecommons.org/licenses/by/4.0/)</dc:rights></rdf:Description></rdf:RDF></metadata><mask id="viewboxMask"><rect width="480" height="480" rx="0" ry="0" x="0" y="0" fill="#fff" /></mask><g mask="url(#viewboxMask)"><rect fill="#ffcccc" width="480" height="480" x="0" y="0" /><g transform="matrix(.85775 0 0 .85427 52 47)"><path d="M264 38.6s131.4 20.6 121.4 208.1c0 .7 15.2 10.9 16.4 12a77.1 77.1 0 0 1 23.4 36.3c13.9 51.3-35.7 104.2-75.8 118.2a155 155 0 0 1-46.7 8.3c-103.1 3-239.7-62.7-246.7-191a202.7 202.7 0 0 1 15.1-83.9c0 .1 57.4-142.5 192.9-108Z" fill="#8c5a2b"/><path d="M388.7 248.7a57 57 0 0 0-3.2 10.5 40 40 0 0 0 8.5 30.4 42.3 42.3 0 0 0 33 15.7c-3.2-31.7-29-50.7-38.3-56.6ZM203.5 332c24.4-5.2 39.6-31 33.9-57.5-5.7-26.5-30.2-43.7-54.6-38.5-24.4 5.3-39.5 31-33.8 57.6 5.7 26.5 30.1 43.7 54.5 38.5Z" fill="#DC2400" style="mix-blend-mode:multiply" opacity=".1"/><path opacity=".1" d="M323 257.9s20.9-19.9 37-1.2Z" fill="#000"/><path d="M128.7 356.9C59.3 391.7-3.7 304.4 16.5 255.3c12.9-31.4 50.4-33.8 72.1-5.2a185 185 0 0 1 29.1 59.1" fill="#8c5a2b"/><path opacity=".1" d="M71.5 279c9 9 16.1 22.5 25 30-1.7-12.5-4.3-26-10.4-37.3-6.2-11.6-17.5-21-29-20.3-14.2 1-25.9 17.6-27.4 32.6 1-9 19-15 25.9-14.2 10.8 20.4 15 60.6 15 60.6 9-22.7 5.4-40.7 1-51.5Z" fill="#000"/></g><g transform="matrix(.85472 0 0 .855 19 -17)"><path d="M393.3 367c3 1.7 24.1-24.8 38.2-16.7 4.7 2.7 8.3 7.3 11 12.3 6 11 8 24.4 5.7 36.8a67 67 0 0 1-29 41.2c-37.4 25.5-67 20.7-106.8 6-31.4-11.7-74-35.6-65.2-78.7 15.6-76 146.1-1 146.1-1Z" fill="#873C41"/><path d="M318.9 366.5a44.8 44.8 0 0 1-33.6-4.4 31 31 0 0 1-14.3-24.6c26.3-10.3 67.3 3.6 94.5 15.6l-13 38.9c-12.8-2.1-26-9.4-29.3-22.1-.5-2-2.2-3.9-4.3-3.4ZM420.5 349.6c3.8 14.7-5.7 34.9-19.5 42.4-14 8.7-31.3 7-37.5 1.8l11.2-36.5c11.3 5.4 18.6 9.6 18.6 9.6 2.3 1.4 15-13.6 27.2-17.3Z" fill="#fff"/><path d="M400.3 443.8c-22-20.1-48.9-31.4-76.2-39.3-23.4-6.9-49.7-11.3-73.4-4.5 11 23.5 39.2 38.2 61.7 46.6 34.8 12.9 61.8 18.2 93 2.2-1.7-1.7-3.3-3.4-5.1-5Z" fill="#EE7E8B"/></g><g transform="matrix(.85472 0 0 .855 19 -17)"><path d="M340.9 308.9a48 48 0 0 0-43.1-6.7c-.2 0-.4-.2-.2-.4 21.5-24.5 37.8-6.1 43.6 6.8 0 .2-.2.4-.3.3ZM419 300.3c0 8-3.6 16.5-12.8 15.5-7.8-.8-9.7-11-9.7-16 0-8.7 4.4-17 10.8-17 6.8 0 11.7 9.5 11.7 17.5Z" fill="#2A1200"/><path d="M333.5 238.7a43.9 43.9 0 0 0-38.2 13.2c-3.2 3.4-4 9.3-.7 13 3 3.6 8.6 4.6 12 1l3.2-3c.4-.3 1.3-.8 1.6-1.2l.5-.4a37.7 37.7 0 0 1 6-3c.5 0 1.2-.4 1.7-.5a35.6 35.6 0 0 1 6.3-1.2h2l4.3.5c4.4.7 9-3.6 9.2-8.4.1-5.3-3.2-9.3-8-10ZM425.4 254.4a31.4 31.4 0 0 0-20.2-12.6c-2.1-.4-4.6.4-6.3 1.8a9.5 9.5 0 0 0-3.1 6.2c-.1 2.4.3 5 1.8 6.8a9 9 0 0 0 5.7 3.5l1.2.3c1 .4 2.1.8 3.2 1.4 1.2.8 2.3 1.7 3.3 2.7l1 1.3a8.8 8.8 0 0 0 5.8 3.5c2 .2 4.6-.4 6.2-2 1.7-1.5 3-3.6 3.2-6 .1-2.5-.4-5-1.8-7Z" fill="#71472D"/></g><g transform="matrix(.85472 0 0 .85667 18 -15)"><g fill="#3a1a00"><path fill-rule="evenodd" clip-rule="evenodd" d="m341.7 168 .9 1 .8-.8c20.8 3.8 37.4 10.5 44 15.8a155.5 155.5 0 0 0 20.3 15 249.4 249.4 0 0 1 15.9 55c4 24.8 3 53.7 2 65 1.5 1.2 3.1 2.3 4.9 3.5 5 3.5 10.7 7.5 18 14.5a60.6 60.6 0 0 0 6.6-47.5c-1.4-6.4-4-12.9-7.1-20.6-6.5-15.7-15-36.9-19.4-74.4-4-33.8-32-84.5-64-95.5-25.6-8.8-45.7-3.7-51 0-55-46-140-14-163 0-10.8 6.5-19.5 16-28.7 26.1A162.6 162.6 0 0 1 84.6 158c-29 17-35 60-29 89s9 53-6 72-23 47-6 80c13.6 26.4 9.6 49 6 57 17.4 16 55.3 29 92.5 38.4 1.8.5 2.3-4.7 2.7-10 .5-5.1 1-10.3 2.8-9.9l1.6 2.3.7 3.6c1.3 6.6 3.3 16.9 15.2 19.5 38.7 8.6 71.5 13.1 71.5 13.1 13.1-22.4-2.3-53.5-16.1-81.2-7.2-14.4-13.9-27.9-16-38.8-3.3-18.1 3.5-31.1 12.3-47.7a201.6 201.6 0 0 0 19.8-48.3c4.5-18.2 3.3-33 2.1-47.3-1.7-21.2-3.4-41.5 13.6-70.7 27.5-15.4 61.8-15.8 89.4-11Zm63.5 25.5Z"/><path d="M442 448c1.2 5.8 2.9 19.2 0 26-7.4 1.3-24.7 3.6-34 2 6.4-3.8 22-14.8 34-28Z"/></g><path d="M343.4 168.2c20.8 3.8 37.4 10.5 44 15.8a155.5 155.5 0 0 0 20.3 15 163.4 163.4 0 0 0-5.5-11.4C391.2 167 376 152 356.1 158a22 22 0 0 0-8.1 6l-4.6 4.2ZM258.6 169c29.8-44 67.2-19.6 83-1-27.5-4.8-61.8-4.4-89.3 11 1.8-3.2 4-6.6 6.3-10Z" fill="#000" fill-opacity=".3"/><path d="M216.6 172c23.2-40 72.3-46.7 94-45-117-12-128 68-128 99 0 24.8 3 39-5 53a72.3 72.3 0 0 0-13 79c-5-26 5-45 27-70s-4-66 25-116ZM182.6 444c-14.4-14.4-18-28-18-33 46.4 24 37.3 61.3 27 77 3-8.7 5.4-29.6-9-44ZM112.6 279c8.8-20 7-43.7 5-53 0 30-19 62-40 100-16.8 30.4 7 66 21 80 3-16-10-28-11-57s14-45 25-70ZM443.6 333c5.2-16.4 1.5-39.5-1-49 0 16.4-3 36.2-4.5 44l5.5 5Z" fill="#000" fill-opacity=".2"/></g><g transform="matrix(.85472 0 0 .85667 14 -12)"></g></g></svg>