<svg xmlns="http://www.w3.org/2000/svg" viewBox="0 0 480 480" fill="none" shape-rendering="auto"><metadata xmlns:rdf="http://www.w3.org/1999/02/22-rdf-syntax-ns#" xmlns:xsi="http://www.w3.org/2001/XMLSchema-instance" xmlns:dc="http://purl.org/dc/elements/1.1/" xmlns:dcterms="http://purl.org/dc/terms/"><rdf:RDF><rdf:Description><dc:title>Custom Avatar</dc:title><dc:creator>Ashley Seo</dc:creator><dc:source xsi:type="dcterms:URI">https://www.figma.com/community/file/881358461963645496</dc:source><dcterms:license xsi:type="dcterms:URI">https://creativecommons.org/licenses/by/4.0/</dcterms:license><dc:rights>Remix of „Custom Avatar” (https://www.figma.com/community/file/881358461963645496) by „Ashley Seo”, licensed under „CC BY 4.0” (https://creativecommons.org/licenses/by/4.0/)</dc:rights></rdf:Description></rdf:RDF></metadata><mask id="viewboxMask"><rect width="480" height="480" rx="0" ry="0" x="0" y="0" fill="#fff" /></mask><g mask="url(#viewboxMask)"><rect fill="#ccccff" width="480" height="480" x="0" y="0" /><g transform="matrix(.85775 0 0 .85427 52 47)"><path d="M264 38.6s131.4 20.6 121.4 208.1c0 .7 15.2 10.9 16.4 12a77.1 77.1 0 0 1 23.4 36.3c13.9 51.3-35.7 104.2-75.8 118.2a155 155 0 0 1-46.7 8.3c-103.1 3-239.7-62.7-246.7-191a202.7 202.7 0 0 1 15.1-83.9c0 .1 57.4-142.5 192.9-108Z" fill="#f5d7b1"/><path d="M388.7 248.7a57 57 0 0 0-3.2 10.5 40 40 0 0 0 8.5 30.4 42.3 42.3 0 0 0 33 15.7c-3.2-31.7-29-50.7-38.3-56.6ZM203.5 332c24.4-5.2 39.6-31 33.9-57.5-5.7-26.5-30.2-43.7-54.6-38.5-24.4 5.3-39.5 31-33.8 57.6 5.7 26.5 30.1 43.7 54.5 38.5Z" fill="#DC2400" style="mix-blend-mode:multiply" opacity=".1"/><path opacity=".1" d="M323 257.9s20.9-19.9 37-1.2Z" fill="#000"/><path d="M128.7 356.9C59.3 391.7-3.7 304.4 16.5 255.3c12.9-31.4 50.4-33.8 72.1-5.2a185 185 0 0 1 29.1 59.1" fill="#f5d7b1"/><path opacity=".1" d="M71.5 279c9 9 16.1 22.5 25 30-1.7-12.5-4.3-26-10.4-37.3-6.2-11.6-17.5-21-29-20.3-14.2 1-25.9 17.6-27.4 32.6 1-9 19-15 25.9-14.2 10.8 20.4 15 60.6 15 60.6 9-22.7 5.4-40.7 1-51.5Z" fill="#000"/></g><g transform="matrix(.85472 0 0 .855 19 -17)"><path d="M311.4 362.3C339 346 362.6 345 379.3 344c33.3-2 61.1 8.8 68.5 42.7 6.8 31.2-16.9 49.4-27.8 49-11-.3-13.3-12.2-39.3-12.8-26-.6-63.4 42.9-85.5 26.6-22.2-16.4-18.4-66.6 16.2-87Z" fill="#873C41"/><path d="M433.3 430.2a22.8 22.8 0 0 1-13.1 5.3c-4.3-.1-7.3-2-10.9-4.4-5.5-3.6-12.6-8.1-28.5-8.5-11-.2-24.1 7.4-37.2 15.1-17.8 10.4-35.6 20.9-48.4 11.5-11.7-8.6-16.1-26.4-12.8-44.4 20-6 42.3-5.6 62.8-3.3 29.5 3.3 59.2 10 85.4 26.8a84 84 0 0 1 2.7 1.9Z" fill="#EE7E8B"/><path d="M333.4 368.5a46.8 46.8 0 0 1-37.9 7.5c4.3-5.3 9.6-10 15.9-13.7a136.3 136.3 0 0 1 68-18.4c21.6-1.4 40.8 2.7 53.8 14.9l-.6.7a29 29 0 0 1-32.3 7.3c-1.6-.7-3.6.4-4.4 1.9-9.8 18.9-43.8 19.8-57 1.4-1.3-1.7-3.6-2.8-5.5-1.6Z" fill="#fff"/></g><g transform="matrix(.85472 0 0 .855 19 -17)"><path d="M330.2 300.5c0 11.9-6.2 21.5-19.1 19.5-9.3-2.5-15.5-9-15.5-21.5 0-13 7.7-21.5 15.5-21.5 10.6 0 19.1 11.6 19 23.5ZM396.4 293c5.6.3 13.4-.3 18.7-3.9 1.8 3.3 3 7.4 3 11.2-.1 8-3.7 16.5-13 15.5-7.7-.8-9.6-11-9.6-16 0-2.4.3-4.7.9-6.8Z" fill="#2A1200"/><path d="M332 238.1a43.9 43.9 0 0 0-37.7 14.6c-3 3.4-3.8 9.4-.3 13 3.2 3.4 8.8 4.3 12 .6 1-1.1 2-2.2 3.1-3.1l1.6-1.3.5-.4a37.7 37.7 0 0 1 5.8-3.2l1.8-.6a34.5 34.5 0 0 1 5.8-1.3h.5l2-.1 4.3.3c4.4.6 8.8-4 8.8-8.7 0-5.3-3.4-9.2-8.2-9.8ZM419.5 276c-7.4 4.1-16 5-23.6 2.8-2-.6-4-2.4-4.9-4.4-.8-2-1-4.8-.2-7a10 10 0 0 1 4.6-5.3 9 9 0 0 1 6.7-.7l1 .3h3.6c1.4-.1 2.8-.5 4.2-1l1.5-.6c2-1.1 4.6-1.4 6.6-.7 2 .6 4 2.3 4.9 4.4.8 2 1 4.6.2 6.9-1 2.3-2.5 4.2-4.6 5.4Z" fill="#71472D"/></g><g transform="matrix(.85472 0 0 .85667 18 -15)"><path d="M119 .1v-.6a37.5 37.5 0 0 1 70.5-17.8 37.4 37.4 0 0 1 66 29.5 37.5 37.5 0 0 1 .6 74.5c-3.2 44.3-37.3 79.1-78.8 79.1a77 77 0 0 1-62.8-33.7A37.6 37.6 0 0 1 69 94.6c0-12 5.6-22.6 14.3-29.5A37.4 37.4 0 0 1 119 .1Z" fill="#238d80"/><path d="M119 .1v-.6a37.5 37.5 0 0 1 70.5-17.8 37.4 37.4 0 0 1 66 29.5 37.5 37.5 0 0 1 .6 74.5c-3.2 44.3-37.3 79.1-78.8 79.1a77 77 0 0 1-62.8-33.7A37.6 37.6 0 0 1 69 94.6c0-12 5.6-22.6 14.3-29.5A37.4 37.4 0 0 1 119 .1Z" fill="#fff" fill-opacity=".1"/><g fill="#000" fill-opacity=".3"><path d="M119.5.5c5 1 16.3 5.2 21.5 14-4.7-10-11-28.2-10.3-42.2a37.4 37.4 0 0 0-11.7 26l.5 2.2ZM73.9 17c5.6 14 22 38.1 51.1 38.5-3.7 4.2-9.9 14.7-5.5 23.5C125 90 194 92.5 216 93c20 .5 59-32.6 69-61.5a37.5 37.5 0 0 1-28.8 54.2c-.5 6.1-1.6 12-3.1 17.7-32.3 12.4-86.3 29-127 41a84 84 0 0 1-11.6-13.2A37.6 37.6 0 0 1 69 94.5c0-12 5.6-22.6 14.3-29.5A37.4 37.4 0 0 1 74 17Z"/><path d="M269.3 15.5A32.1 32.1 0 0 1 242 32a102.7 102.7 0 0 0 13.6-20.8c4.9.5 9.5 2 13.7 4.3ZM230-30.2c-16 3.6-31.2 17.6-37.5 25.2a44.8 44.8 0 0 0-2.4-14 37.4 37.4 0 0 1 40-11.2Z"/></g><path d="M313.4 158c6.2-8.4 8.3-12.5 15-12.5 6.7 0 13.8 10.9 21.7 12.5 9.8 2 18-3 25.8-2 7.8 1 4.7 6 9.8 17.5 5.2 11.5 14 15 16.6 18.5 2.6 3.5 0 10.5 2 15.5 2.1 5 8.3 7 9.9 11.5 1.5 4.5-1.6 6 1.5 12.5 2.5 5.2 7.2 9.8 9.3 11.5l-12.4-46a104.6 104.6 0 0 0-84.2-67C220.9 100 130 213 98 273.5l23 44.5c6-1.8 14.4-5.5 21.4-13.5 8.8-10 5.7-34 8.8-44 3.1-10 8.3-15 25.8-22.5 17.6-7.5 16.6-21.5 25.4-32.5 8.7-11 27.8-5 36.1-12s1-17 12.4-26 28.4-4.5 37.7 0c9.3 4.5 17 1 24.8-9.5Z" fill="#351700" style="mix-blend-mode:multiply" opacity=".3"/><path d="M161.4 86.4C65.7 118.7 21.5 226.5 54.4 335c3.7-11.7 15.7-34.3 42-31.5 4.4 1 16 6 27.6 18 37.4-195 193.5-192.5 239-174 44.4 18 55 88 57.5 97.9 1.6 1.6 4.2.3 4.1-2.1C420.4 83 266 51.2 161.4 86.4Z" fill="#238d80"/><g fill="#000" fill-opacity=".1"><path d="M232 81c21.3 9 67.8 31.4 83 49-7.7-16.3-35-49-83-49ZM208 91c4.3 15.3 15.2 48.4 24 58 .7-10.2-3.2-36-24-58ZM174.5 95c-1.5 16.7-.7 55.5 14.5 77.5A55.8 55.8 0 0 1 174.5 95ZM137 233.5a140.8 140.8 0 0 1 11.5-126C94.9 174.3 111.8 235.7 127 258c-8-12.8-8.3-38-7.5-49 .4 11.6 11.8 21.2 17.5 24.5Z"/><path d="M115.5 130c-17.2 28.8-44.6 98.9-17 148.5-17.8-20-39.4-77.7 17-148.5ZM290 87c20.2 6 65.1 25.3 83.5 54.5A111.7 111.7 0 0 0 290 87Z"/></g></g><g transform="matrix(.85472 0 0 .85667 14 -12)"></g></g></svg>