<svg xmlns="http://www.w3.org/2000/svg" viewBox="0 0 480 480" fill="none" shape-rendering="auto"><metadata xmlns:rdf="http://www.w3.org/1999/02/22-rdf-syntax-ns#" xmlns:xsi="http://www.w3.org/2001/XMLSchema-instance" xmlns:dc="http://purl.org/dc/elements/1.1/" xmlns:dcterms="http://purl.org/dc/terms/"><rdf:RDF><rdf:Description><dc:title>Custom Avatar</dc:title><dc:creator>Ashley Seo</dc:creator><dc:source xsi:type="dcterms:URI">https://www.figma.com/community/file/881358461963645496</dc:source><dcterms:license xsi:type="dcterms:URI">https://creativecommons.org/licenses/by/4.0/</dcterms:license><dc:rights>Remix of „Custom Avatar” (https://www.figma.com/community/file/881358461963645496) by „Ashley Seo”, licensed under „CC BY 4.0” (https://creativecommons.org/licenses/by/4.0/)</dc:rights></rdf:Description></rdf:RDF></metadata><mask id="viewboxMask"><rect width="480" height="480" rx="0" ry="0" x="0" y="0" fill="#fff" /></mask><g mask="url(#viewboxMask)"><rect fill="#e99eff" width="480" height="480" x="0" y="0" /><g transform="matrix(.85775 0 0 .85427 52 47)"><path d="M264 38.6s131.4 20.6 121.4 208.1c0 .7 15.2 10.9 16.4 12a77.1 77.1 0 0 1 23.4 36.3c13.9 51.3-35.7 104.2-75.8 118.2a155 155 0 0 1-46.7 8.3c-103.1 3-239.7-62.7-246.7-191a202.7 202.7 0 0 1 15.1-83.9c0 .1 57.4-142.5 192.9-108Z" fill="#efcc9f"/><path d="M388.7 248.7a57 57 0 0 0-3.2 10.5 40 40 0 0 0 8.5 30.4 42.3 42.3 0 0 0 33 15.7c-3.2-31.7-29-50.7-38.3-56.6ZM203.5 332c24.4-5.2 39.6-31 33.9-57.5-5.7-26.5-30.2-43.7-54.6-38.5-24.4 5.3-39.5 31-33.8 57.6 5.7 26.5 30.1 43.7 54.5 38.5Z" fill="#DC2400" style="mix-blend-mode:multiply" opacity=".1"/><path opacity=".1" d="M323 257.9s20.9-19.9 37-1.2Z" fill="#000"/><path d="M128.7 356.9C59.3 391.7-3.7 304.4 16.5 255.3c12.9-31.4 50.4-33.8 72.1-5.2a185 185 0 0 1 29.1 59.1" fill="#efcc9f"/><path opacity=".1" d="M71.5 279c9 9 16.1 22.5 25 30-1.7-12.5-4.3-26-10.4-37.3-6.2-11.6-17.5-21-29-20.3-14.2 1-25.9 17.6-27.4 32.6 1-9 19-15 25.9-14.2 10.8 20.4 15 60.6 15 60.6 9-22.7 5.4-40.7 1-51.5Z" fill="#000"/></g><g transform="matrix(.85472 0 0 .855 19 -17)"><path d="M385.3 380.4c9.4.2 18.3-2.5 26-10.5 4-4.2 8.2-6.5 14-3 13.9 8.7 17.1 30.2 13.4 44.6a63.3 63.3 0 0 1-30.7 36.8c-38.2 22.4-67.6 17.4-106.8 3-30.8-11.2-72.5-33.9-62-72.9 13.2-48.3 69.6-25 101.4-12 13.5 5.5 29.6 13.5 44.7 14Z" fill="#fff"/><path d="m347 463.2-6-.8 22.7-86.7 5.7 1.9-22.3 85.6ZM426.9 433a68.7 68.7 0 0 1-5.1 5.3l-13-66 2.6-2.4c.8-.9 1.7-1.7 2.6-2.4l12.9 65.6ZM296.8 351.4 264.4 433a98.1 98.1 0 0 1-5-3.7l31.4-79 6 1.1Z" fill="#D1D3D4"/></g><g transform="matrix(.85472 0 0 .855 19 -17)"><path d="M401.9 284.8c3.9 1.8 9.3 3.9 14.5 5.1 1.6 3.1 2.5 6.9 2.5 10.3 0 8-3.6 16.5-13 15.5-7.7-.8-9.7-11-9.7-16 0-6 2.2-12 5.7-15ZM296.2 292.5c-.4 2-.6 4-.6 6 0 12.5 6.2 19 15.5 21.5 13 2 19.3-7.7 19.3-19.5 0-7-2.9-13.8-7.4-18.2a55.3 55.3 0 0 1-26.8 10.2Z" fill="#2A1200"/><path d="M324.8 237.7a43.9 43.9 0 0 0-32.3 24.2c-2 4.2-1.1 10 3.2 12.7 4 2.4 9.6 1.7 11.8-2.7.6-1.4 1.3-2.6 2-3.9.3-.4 1.1-1.2 1.3-1.7l.4-.4a37.4 37.4 0 0 1 4.7-4.7c.5-.3 1-.8 1.5-1a34.2 34.2 0 0 1 5.7-3 36.2 36.2 0 0 1 6.1-1.5c4.4-.7 7.5-6.2 6.2-10.8-1.5-5-5.8-7.9-10.6-7.2ZM425.2 260.4c-3.1-7.8-9.1-14-16.4-17.1-2-1-4.6-.7-6.6.2-1.9 1-3.8 3-4.5 5.2a10 10 0 0 0 0 7 9 9 0 0 0 4.7 4.9l1 .5c1 .6 2 1.4 2.9 2.2 1 1 1.8 2.2 2.5 3.4l.7 1.5c.9 2.1 2.7 4 4.7 4.8 2 .8 4.6.8 6.5-.3 2-1 3.8-2.9 4.6-5.2.7-2.3.8-4.8 0-7Z" fill="#71472D"/></g><g transform="matrix(.85472 0 0 .85667 18 -15)"><path d="M440 102.8c-74-50.6-244.4-113.6-334 40l28.2 32c-17 22.4-25.2 41.9-25.7 43.2-8.8 22-12 46.3-12.6 70.6-.1 4.6 0 9.2.2 13.8 38.1 6.5 56.1 47.3 60.4 67 0 0 11.3.6 14-1.6 14-7.3 38.9-37.4 26.5-99-6-28-2-50.3 47-85 20.6-14.5 46.3-19.2 70.3-18.7a1221.6 1221.6 0 0 0 10 .5c29.2 2.3 54.4 11.5 62.7 18.2 12.8 10.4 19 14.4 20.4 15-5.6-12.6-12-23.5-19-32.8 7.8-19 21.9-44.5 40.7-57.4 3.5-2.4 7.1-4.4 10.9-5.8Z" fill="#238d80"/><path d="M106 142.8c89.6-153.6 260-90.6 334-40-20-13.7-115.5-40.5-159-18.5l.4.7c-83-18-151.1 30.5-175.4 57.8Z" fill="#fff" fill-opacity=".2"/><path d="M440 102.8c-30.4 11.2-51 58-57 78-28.5-14-47-15-77-16 4-32.8-17.7-67.8-25-80.5 43.5-22 139 4.8 159 18.5Z" fill="#000" fill-opacity=".1"/><path d="M306.2 163.2c-.8-12-40.7-41.1-81.2-36.4-54.1 6.4-86.5 45-89 50l-1.8-2c-17 22.4-25.2 41.9-25.7 43.2-8.8 22-12 46.3-12.6 70.6-.1 4.6 0 9.2.2 13.8 38.1 6.5 56.1 47.3 60.4 67 0 0 11.3.6 14-1.6 14-7.3 38.9-37.4 26.5-99-6-28-2-50.3 47-85 20.6-14.5 46.3-19.2 70.3-18.7l-8.3-.3.2-1.6ZM324.3 165.6c29.2 2.3 54.4 11.5 62.7 18.2 12.8 10.4 19 14.4 20.4 15-5.6-12.6-12-23.5-19-32.8-2.4 5.6-4.2 10.7-5.4 14.7v.1a138.1 138.1 0 0 0-58.7-15.2Z" fill="#fff" fill-opacity=".7"/></g><g transform="matrix(.85472 0 0 .85667 14 -12)"></g></g></svg>