<svg xmlns="http://www.w3.org/2000/svg" viewBox="0 0 480 480" fill="none" shape-rendering="auto"><metadata xmlns:rdf="http://www.w3.org/1999/02/22-rdf-syntax-ns#" xmlns:xsi="http://www.w3.org/2001/XMLSchema-instance" xmlns:dc="http://purl.org/dc/elements/1.1/" xmlns:dcterms="http://purl.org/dc/terms/"><rdf:RDF><rdf:Description><dc:title>Custom Avatar</dc:title><dc:creator>Ashley Seo</dc:creator><dc:source xsi:type="dcterms:URI">https://www.figma.com/community/file/881358461963645496</dc:source><dcterms:license xsi:type="dcterms:URI">https://creativecommons.org/licenses/by/4.0/</dcterms:license><dc:rights>Remix of „Custom Avatar” (https://www.figma.com/community/file/881358461963645496) by „Ashley Seo”, licensed under „CC BY 4.0” (https://creativecommons.org/licenses/by/4.0/)</dc:rights></rdf:Description></rdf:RDF></metadata><mask id="viewboxMask"><rect width="480" height="480" rx="0" ry="0" x="0" y="0" fill="#fff" /></mask><g mask="url(#viewboxMask)"><rect fill="#cc99ff" width="480" height="480" x="0" y="0" /><g transform="matrix(.85775 0 0 .85427 52 47)"><path d="M264 38.6s131.4 20.6 121.4 208.1c0 .7 15.2 10.9 16.4 12a77.1 77.1 0 0 1 23.4 36.3c13.9 51.3-35.7 104.2-75.8 118.2a155 155 0 0 1-46.7 8.3c-103.1 3-239.7-62.7-246.7-191a202.7 202.7 0 0 1 15.1-83.9c0 .1 57.4-142.5 192.9-108Z" fill="#ffe4c0"/><path d="M388.7 248.7a57 57 0 0 0-3.2 10.5 40 40 0 0 0 8.5 30.4 42.3 42.3 0 0 0 33 15.7c-3.2-31.7-29-50.7-38.3-56.6ZM203.5 332c24.4-5.2 39.6-31 33.9-57.5-5.7-26.5-30.2-43.7-54.6-38.5-24.4 5.3-39.5 31-33.8 57.6 5.7 26.5 30.1 43.7 54.5 38.5Z" fill="#DC2400" style="mix-blend-mode:multiply" opacity=".1"/><path opacity=".1" d="M323 257.9s20.9-19.9 37-1.2Z" fill="#000"/><path d="M128.7 356.9C59.3 391.7-3.7 304.4 16.5 255.3c12.9-31.4 50.4-33.8 72.1-5.2a185 185 0 0 1 29.1 59.1" fill="#ffe4c0"/><path opacity=".1" d="M71.5 279c9 9 16.1 22.5 25 30-1.7-12.5-4.3-26-10.4-37.3-6.2-11.6-17.5-21-29-20.3-14.2 1-25.9 17.6-27.4 32.6 1-9 19-15 25.9-14.2 10.8 20.4 15 60.6 15 60.6 9-22.7 5.4-40.7 1-51.5Z" fill="#000"/></g><g transform="matrix(.85472 0 0 .855 19 -17)"><path fill-rule="evenodd" clip-rule="evenodd" d="M386.9 358c1 0 2 .4 2.9 1.1 4.2 4 11.4 9.2 19.5 11.7 7.9 2.5 16 2.2 23-3.8a4 4 0 1 1 5.3 6 31 31 0 0 1-30.7 5.5 59.7 59.7 0 0 1-19.6-11 84.3 84.3 0 0 1-101.3 16 4 4 0 0 1 4-7 76.3 76.3 0 0 0 94-17.2 4 4 0 0 1 2.9-1.3Z" fill="#592125"/></g><g transform="matrix(.85472 0 0 .855 19 -17)"><path d="M340.9 308.9a48 48 0 0 0-43.1-6.7c-.2 0-.4-.2-.2-.4 21.5-24.5 37.8-6.1 43.6 6.8 0 .2-.2.4-.3.3ZM419 300.3c0 8-3.6 16.5-12.8 15.5-7.8-.8-9.7-11-9.7-16 0-8.7 4.4-17 10.8-17 6.8 0 11.7 9.5 11.7 17.5Z" fill="#2A1200"/><path d="M333.5 238.7a43.9 43.9 0 0 0-38.2 13.2c-3.2 3.4-4 9.3-.7 13 3 3.6 8.6 4.6 12 1l3.2-3c.4-.3 1.3-.8 1.6-1.2l.5-.4a37.7 37.7 0 0 1 6-3c.5 0 1.2-.4 1.7-.5a35.6 35.6 0 0 1 6.3-1.2h2l4.3.5c4.4.7 9-3.6 9.2-8.4.1-5.3-3.2-9.3-8-10ZM425.4 254.4a31.4 31.4 0 0 0-20.2-12.6c-2.1-.4-4.6.4-6.3 1.8a9.5 9.5 0 0 0-3.1 6.2c-.1 2.4.3 5 1.8 6.8a9 9 0 0 0 5.7 3.5l1.2.3c1 .4 2.1.8 3.2 1.4 1.2.8 2.3 1.7 3.3 2.7l1 1.3a8.8 8.8 0 0 0 5.8 3.5c2 .2 4.6-.4 6.2-2 1.7-1.5 3-3.6 3.2-6 .1-2.5-.4-5-1.8-7Z" fill="#71472D"/></g><g transform="matrix(.85472 0 0 .85667 18 -15)"><path d="M366.8 170.9c-8 7.2-16.8 17.6-26.5 29.1-16.3 19.3-35.3 41.8-57.3 57.3a227.2 227.2 0 0 1-86.5 35.3 86.4 86.4 0 0 0-16.4 32c-3.2 9.9-5.5 17-13 17.4-9-20.6-25.4-54.2-71.1-39-38.5 12.8-40.4 56.3-28 78.5 7 12.4 35.3 40 81 34l29.5 25.5c-2.9 5.4-8.2 13.1-25.8 20.7-21.9 9.5-123.8 1-133.3-60.8-23.8-20.6-61.1-78.2-20-143.6 12.6-20 30.3-34.4 51.3-43.7-.2-8.2-.2-17.7.1-28.6 2-60 58.1-108.4 102-118.9 42.7-10.2 132.8-6.8 169.8 26.2C443 47.5 473.8 193.9 469.5 249.5c22.4 44 7 106.7-1 131.5-4-33.6-31.3-56-44-61.5 5.6-30.4-5-82-11-104a139 139 0 0 0-46.7-44.6Z" fill="#e9b729"/></g><g transform="matrix(.85472 0 0 .85667 14 -12)"><path d="M148 160c101.9-11.2 203 37.8 229.5 60.5 9.6-11.2 25.4-24.7 36.4-26 2.6 6 7 21 8.1 24.5-16 0-33.5 19.8-42.1 33.5-66.9-58-160.1-58-254.9-58a95.8 95.8 0 0 1 23-34.5Z" fill="#FFC00C"/><path d="M283.7 205.8c-6-1.4-12.2-2.6-18.3-3.6l22.4-25.5c5.4 1.7 10.7 3.5 15.8 5.4l-19.9 23.7ZM330.5 221.5a224 224 0 0 0-5.4-2.4l15.7-21.2 5.2 2.7-15.5 20.9ZM349.6 231.4c-3.7-2.2-7.4-4.2-11-6l14.6-21c3.4 2 6.6 3.8 9.4 5.6l-13 21.4ZM414.2 220.4a54.5 54.5 0 0 0-19 13l19.2-37.7c1.6 4 3.7 10.7 5.3 16l-5.5 8.7Z" fill="#FFD45B"/><ellipse cx="378.2" cy="232.5" rx="8.8" ry="13.5" fill="#FF3C15"/><path d="M378.2 246c4.8 0 8.8-6 8.8-13.5 0-.8 0-1.7-.2-2.5a26.2 26.2 0 0 1-14.1 13c1.5 2 3.4 3 5.5 3Z" fill="#CB1414"/><path d="M374.5 230.5c1.5.6 3.4-1 4.3-3.7.8-2.5.2-5-1.3-5.6-1.6-.5-3.5 1.1-4.3 3.7-.8 2.5-.3 5 1.3 5.6Z" fill="#FF7256"/></g></g></svg>