<svg xmlns="http://www.w3.org/2000/svg" viewBox="0 0 480 480" fill="none" shape-rendering="auto"><metadata xmlns:rdf="http://www.w3.org/1999/02/22-rdf-syntax-ns#" xmlns:xsi="http://www.w3.org/2001/XMLSchema-instance" xmlns:dc="http://purl.org/dc/elements/1.1/" xmlns:dcterms="http://purl.org/dc/terms/"><rdf:RDF><rdf:Description><dc:title>Custom Avatar</dc:title><dc:creator>Ashley Seo</dc:creator><dc:source xsi:type="dcterms:URI">https://www.figma.com/community/file/881358461963645496</dc:source><dcterms:license xsi:type="dcterms:URI">https://creativecommons.org/licenses/by/4.0/</dcterms:license><dc:rights>Remix of „Custom Avatar” (https://www.figma.com/community/file/881358461963645496) by „Ashley Seo”, licensed under „CC BY 4.0” (https://creativecommons.org/licenses/by/4.0/)</dc:rights></rdf:Description></rdf:RDF></metadata><mask id="viewboxMask"><rect width="480" height="480" rx="0" ry="0" x="0" y="0" fill="#fff" /></mask><g mask="url(#viewboxMask)"><rect fill="#ffcc99" width="480" height="480" x="0" y="0" /><g transform="matrix(.85775 0 0 .85427 52 47)"><path d="M264 38.6s131.4 20.6 121.4 208.1c0 .7 15.2 10.9 16.4 12a77.1 77.1 0 0 1 23.4 36.3c13.9 51.3-35.7 104.2-75.8 118.2a155 155 0 0 1-46.7 8.3c-103.1 3-239.7-62.7-246.7-191a202.7 202.7 0 0 1 15.1-83.9c0 .1 57.4-142.5 192.9-108Z" fill="#efcc9f"/><path d="M388.7 248.7a57 57 0 0 0-3.2 10.5 40 40 0 0 0 8.5 30.4 42.3 42.3 0 0 0 33 15.7c-3.2-31.7-29-50.7-38.3-56.6ZM203.5 332c24.4-5.2 39.6-31 33.9-57.5-5.7-26.5-30.2-43.7-54.6-38.5-24.4 5.3-39.5 31-33.8 57.6 5.7 26.5 30.1 43.7 54.5 38.5Z" fill="#DC2400" style="mix-blend-mode:multiply" opacity=".1"/><path opacity=".1" d="M323 257.9s20.9-19.9 37-1.2Z" fill="#000"/><path d="M128.7 356.9C59.3 391.7-3.7 304.4 16.5 255.3c12.9-31.4 50.4-33.8 72.1-5.2a185 185 0 0 1 29.1 59.1" fill="#efcc9f"/><path opacity=".1" d="M71.5 279c9 9 16.1 22.5 25 30-1.7-12.5-4.3-26-10.4-37.3-6.2-11.6-17.5-21-29-20.3-14.2 1-25.9 17.6-27.4 32.6 1-9 19-15 25.9-14.2 10.8 20.4 15 60.6 15 60.6 9-22.7 5.4-40.7 1-51.5Z" fill="#000"/></g><g transform="matrix(.85472 0 0 .855 19 -17)"><path d="M351.7 357.8c35.7 2.3 57.8 0 65 0 30-4.5 42.7 48.4 5 76.2-11.2 8.3-16.7 7-40.7 7-24 0-50 9-64.5 4.9-41.1-11.6-48.3-41.4-44.7-57.8 5-22.1 15.2-34.4 80-30.3Z" fill="#fff"/><path d="m370.1 441.5-6 .7 3.3-83.6 6 .1-3.3 82.8ZM434.1 421.9c-1.5 2-3.2 4-5.1 5.9l-11-70.2c2-.2 4 0 6 .3l10.1 64ZM306.8 358.3 294.2 436c-2-1.3-3.8-2.6-5.4-4l11.7-72.5c2-.5 4-.8 6.3-1.2Z" fill="#D1D3D4"/></g><g transform="matrix(.85472 0 0 .855 19 -17)"><path d="M340.9 308.9a48 48 0 0 0-43.1-6.7c-.2 0-.4-.2-.2-.4 21.5-24.5 37.8-6.1 43.6 6.8 0 .2-.2.4-.3.3ZM419 300.3c0 8-3.6 16.5-12.8 15.5-7.8-.8-9.7-11-9.7-16 0-8.7 4.4-17 10.8-17 6.8 0 11.7 9.5 11.7 17.5Z" fill="#2A1200"/><path d="M333.5 238.7a43.9 43.9 0 0 0-38.2 13.2c-3.2 3.4-4 9.3-.7 13 3 3.6 8.6 4.6 12 1l3.2-3c.4-.3 1.3-.8 1.6-1.2l.5-.4a37.7 37.7 0 0 1 6-3c.5 0 1.2-.4 1.7-.5a35.6 35.6 0 0 1 6.3-1.2h2l4.3.5c4.4.7 9-3.6 9.2-8.4.1-5.3-3.2-9.3-8-10ZM425.4 254.4a31.4 31.4 0 0 0-20.2-12.6c-2.1-.4-4.6.4-6.3 1.8a9.5 9.5 0 0 0-3.1 6.2c-.1 2.4.3 5 1.8 6.8a9 9 0 0 0 5.7 3.5l1.2.3c1 .4 2.1.8 3.2 1.4 1.2.8 2.3 1.7 3.3 2.7l1 1.3a8.8 8.8 0 0 0 5.8 3.5c2 .2 4.6-.4 6.2-2 1.7-1.5 3-3.6 3.2-6 .1-2.5-.4-5-1.8-7Z" fill="#71472D"/></g><g transform="matrix(.85472 0 0 .85667 18 -15)"><path d="M119 .1v-.6a37.5 37.5 0 0 1 70.5-17.8 37.4 37.4 0 0 1 66 29.5 37.5 37.5 0 0 1 .6 74.5c-3.2 44.3-37.3 79.1-78.8 79.1a77 77 0 0 1-62.8-33.7A37.6 37.6 0 0 1 69 94.6c0-12 5.6-22.6 14.3-29.5A37.4 37.4 0 0 1 119 .1Z" fill="#d56c0c"/><path d="M119 .1v-.6a37.5 37.5 0 0 1 70.5-17.8 37.4 37.4 0 0 1 66 29.5 37.5 37.5 0 0 1 .6 74.5c-3.2 44.3-37.3 79.1-78.8 79.1a77 77 0 0 1-62.8-33.7A37.6 37.6 0 0 1 69 94.6c0-12 5.6-22.6 14.3-29.5A37.4 37.4 0 0 1 119 .1Z" fill="#fff" fill-opacity=".1"/><g fill="#000" fill-opacity=".3"><path d="M119.5.5c5 1 16.3 5.2 21.5 14-4.7-10-11-28.2-10.3-42.2a37.4 37.4 0 0 0-11.7 26l.5 2.2ZM73.9 17c5.6 14 22 38.1 51.1 38.5-3.7 4.2-9.9 14.7-5.5 23.5C125 90 194 92.5 216 93c20 .5 59-32.6 69-61.5a37.5 37.5 0 0 1-28.8 54.2c-.5 6.1-1.6 12-3.1 17.7-32.3 12.4-86.3 29-127 41a84 84 0 0 1-11.6-13.2A37.6 37.6 0 0 1 69 94.5c0-12 5.6-22.6 14.3-29.5A37.4 37.4 0 0 1 74 17Z"/><path d="M269.3 15.5A32.1 32.1 0 0 1 242 32a102.7 102.7 0 0 0 13.6-20.8c4.9.5 9.5 2 13.7 4.3ZM230-30.2c-16 3.6-31.2 17.6-37.5 25.2a44.8 44.8 0 0 0-2.4-14 37.4 37.4 0 0 1 40-11.2Z"/></g><path d="M313.4 158c6.2-8.4 8.3-12.5 15-12.5 6.7 0 13.8 10.9 21.7 12.5 9.8 2 18-3 25.8-2 7.8 1 4.7 6 9.8 17.5 5.2 11.5 14 15 16.6 18.5 2.6 3.5 0 10.5 2 15.5 2.1 5 8.3 7 9.9 11.5 1.5 4.5-1.6 6 1.5 12.5 2.5 5.2 7.2 9.8 9.3 11.5l-12.4-46a104.6 104.6 0 0 0-84.2-67C220.9 100 130 213 98 273.5l23 44.5c6-1.8 14.4-5.5 21.4-13.5 8.8-10 5.7-34 8.8-44 3.1-10 8.3-15 25.8-22.5 17.6-7.5 16.6-21.5 25.4-32.5 8.7-11 27.8-5 36.1-12s1-17 12.4-26 28.4-4.5 37.7 0c9.3 4.5 17 1 24.8-9.5Z" fill="#351700" style="mix-blend-mode:multiply" opacity=".3"/><path d="M161.4 86.4C65.7 118.7 21.5 226.5 54.4 335c3.7-11.7 15.7-34.3 42-31.5 4.4 1 16 6 27.6 18 37.4-195 193.5-192.5 239-174 44.4 18 55 88 57.5 97.9 1.6 1.6 4.2.3 4.1-2.1C420.4 83 266 51.2 161.4 86.4Z" fill="#d56c0c"/><g fill="#000" fill-opacity=".1"><path d="M232 81c21.3 9 67.8 31.4 83 49-7.7-16.3-35-49-83-49ZM208 91c4.3 15.3 15.2 48.4 24 58 .7-10.2-3.2-36-24-58ZM174.5 95c-1.5 16.7-.7 55.5 14.5 77.5A55.8 55.8 0 0 1 174.5 95ZM137 233.5a140.8 140.8 0 0 1 11.5-126C94.9 174.3 111.8 235.7 127 258c-8-12.8-8.3-38-7.5-49 .4 11.6 11.8 21.2 17.5 24.5Z"/><path d="M115.5 130c-17.2 28.8-44.6 98.9-17 148.5-17.8-20-39.4-77.7 17-148.5ZM290 87c20.2 6 65.1 25.3 83.5 54.5A111.7 111.7 0 0 0 290 87Z"/></g></g><g transform="matrix(.85472 0 0 .85667 14 -12)"><path d="M99 260c6.5 0 97-2.3 127-7l27.5 58c-40.8 9.6-94.3 9.7-116 8.5A59.3 59.3 0 0 0 88 299c.4-8.8 4.5-39 11-39Z" fill="#5E0E56"/><path d="M438.3 234c-65.2-64.1-159.5-37.2-199.4-6.7a50.2 50.2 0 0 0-19.9 29.2c-4 16.1-2.6 45.3 29.8 65.1 32.4 19.8 72.7 6.3 82 0 9.5-6.2 27-20.8 51-19.8 19.3.9 34.5 10.1 39.8 14.6 9.7 3.9 27.4-1.8 27.4-36 0-34.1-6.5-43.5-10.7-46.3Z" fill="#9A3E91"/><path fill-rule="evenodd" clip-rule="evenodd" d="M328.8 270.3a32.6 32.6 0 0 0 3.8-19.2l-5 .6c.6 4.5-.1 12-4.4 18.2-3.5 5-9.4 9.4-19.3 11a38.7 38.7 0 0 1-24.6-3.5 31.7 31.7 0 0 1-13.3-12.7l-4.5 2.2c2 4 6.3 9.3 12.8 13.4l-8.8 11 4 3.2 9.3-11.8c6.2 3 14 4.5 23.4 3.5l2.3 15 5-.7-2.4-15.1c8.8-2 14.8-6 18.9-11l9.4 4.7 2.2-4.4-8.8-4.4ZM429.3 276.5c4.7-3.5 7.5-8.4 8.8-12l-4.7-1.6a22 22 0 0 1-8.8 10.9 17.9 17.9 0 0 1-15.3 1.3c-6.8-2.1-11.1-6-13.8-10-3-4.9-4-10-4-13h-5c0 3.3.8 8.3 3.4 13.3l-8.8 4.5 2.3 4.5 9.3-4.8c2.9 3.8 7 7.2 12.8 9.4l-3.5 10.8 4.8 1.5 3.4-10.8c5.8 1.3 10.8.6 14.9-1.3l4 5.7 4-2.9-3.8-5.5Z" fill="#F9ACF1"/></g></g></svg>